<?xml version="1.0" standalone="no"?>
<!DOCTYPE svg PUBLIC "-//W3C//DTD SVG 20010904//EN"
 "http://www.w3.org/TR/2001/REC-SVG-20010904/DTD/svg10.dtd">
<svg version="1.0" xmlns="http://www.w3.org/2000/svg"
 width="1500.000000pt" height="1500.000000pt" viewBox="0 0 1500.000000 1500.000000"
 preserveAspectRatio="xMidYMid meet">
<metadata>
Created by potrace 1.11, written by Peter Selinger 2001-2013
</metadata>
<g transform="translate(0.000000,1500.000000) scale(0.100000,-0.100000)"
fill="#000000" stroke="none">
<path d="M0 7500 l0 -7500 7500 0 7500 0 0 7500 0 7500 -7500 0 -7500 0 0
-7500z m14600 0 l0 -7100 -7100 0 -7100 0 0 7100 0 7100 7100 0 7100 0 0
-7100z"/>
<path d="M4238 10735 c-2 -2 -48 -5 -103 -8 -87 -5 -218 -19 -280 -31 -11 -2
-40 -7 -65 -11 -25 -4 -72 -14 -105 -22 -33 -8 -69 -17 -80 -19 -43 -8 -185
-53 -275 -88 -325 -126 -576 -303 -752 -530 -132 -171 -225 -381 -253 -576 -4
-25 -9 -56 -11 -70 -5 -35 -5 -300 0 -308 2 -4 6 -29 10 -57 40 -332 255 -678
570 -918 301 -230 596 -370 1288 -612 523 -184 729 -302 832 -477 32 -55 44
-90 60 -178 24 -130 8 -247 -47 -353 -72 -137 -244 -240 -460 -274 -51 -9
-323 -9 -392 -1 -367 43 -581 191 -675 464 -27 76 -52 225 -51 302 0 61 0 62
-27 63 -33 1 -1216 0 -1254 0 l-26 -1 4 -77 c13 -268 66 -477 175 -698 187
-380 515 -661 991 -848 93 -37 227 -82 273 -92 6 -1 28 -7 50 -13 51 -14 177
-39 235 -47 25 -3 59 -8 75 -12 33 -6 45 -8 180 -19 250 -20 634 -4 855 37 30
6 66 12 80 15 47 8 79 16 140 33 105 29 186 55 194 63 6 4 16 8 24 8 22 0 241
107 312 152 165 106 334 263 422 394 89 131 158 290 192 444 14 61 18 87 31
185 11 86 5 337 -10 416 -3 13 -10 50 -16 82 -15 87 -64 228 -111 324 -96 198
-241 376 -435 534 -42 34 -209 152 -228 160 -11 5 -42 23 -70 39 -83 50 -252
133 -385 189 -69 30 -134 57 -145 62 -37 16 -210 77 -411 144 -619 208 -876
371 -950 605 -17 53 -20 125 -9 195 25 155 168 313 345 383 212 83 508 90 716
17 139 -49 279 -164 341 -280 46 -87 82 -228 83 -325 l0 -35 640 0 c666 0 668
0 655 39 -2 6 -6 52 -9 101 -3 50 -8 100 -10 111 -2 12 -7 38 -10 59 -37 231
-162 500 -323 694 -174 209 -368 348 -688 492 -117 52 -398 127 -540 144 -27
3 -59 8 -70 10 -58 12 -487 29 -497 20z"/>
<path d="M9248 9355 c-2 -1 -37 -5 -78 -8 -74 -7 -96 -10 -155 -24 -16 -4 -33
-6 -37 -5 -5 1 -56 -14 -115 -34 -218 -73 -365 -165 -536 -336 -65 -65 -119
-118 -121 -118 -1 0 -3 6 -3 13 -1 29 -14 175 -18 212 -4 38 -17 186 -18 213
0 6 -3 12 -6 13 -3 0 -264 1 -579 2 -502 2 -575 0 -581 -13 -5 -11 -7 -3895
-2 -3967 1 -10 133 -13 624 -13 l622 0 -1 1387 -2 1388 34 52 c74 115 203 215
320 249 71 20 91 23 194 25 147 2 259 -29 337 -95 63 -53 116 -190 130 -338 4
-40 7 -657 7 -1370 l1 -1298 625 0 625 0 -1 1388 -1 1387 34 57 c18 31 60 81
92 110 121 113 251 160 430 159 296 -2 421 -116 460 -421 4 -36 8 -653 7
-1372 l-1 -1308 627 0 626 0 0 1333 c-1 1219 -4 1436 -23 1575 -50 373 -167
653 -354 841 -105 106 -191 161 -376 242 -11 4 -56 17 -100 28 -251 61 -519
62 -780 4 -282 -63 -551 -239 -738 -485 l-51 -68 -27 55 c-150 299 -420 480
-791 530 -45 6 -295 14 -300 10z"/>
</g>
</svg>
