<?xml version="1.0" standalone="no"?>
<!DOCTYPE svg PUBLIC "-//W3C//DTD SVG 20010904//EN"
 "http://www.w3.org/TR/2001/REC-SVG-20010904/DTD/svg10.dtd">
<svg version="1.0" xmlns="http://www.w3.org/2000/svg"
 width="1500.000000pt" height="1500.000000pt" viewBox="0 0 1500.000000 1500.000000"
 preserveAspectRatio="xMidYMid meet">
<metadata>
Created by potrace 1.11, written by Peter Selinger 2001-2013
</metadata>
<g transform="translate(0.000000,1500.000000) scale(0.100000,-0.100000)"
fill="#000000" stroke="none">
<path d="M3047 11303 c-1 0 -60 -4 -131 -8 -71 -4 -138 -8 -149 -11 -12 -2
-50 -6 -86 -9 -36 -3 -77 -7 -91 -10 -14 -2 -45 -7 -70 -10 -25 -3 -101 -17
-170 -31 -965 -191 -1655 -696 -1900 -1389 -45 -129 -68 -228 -90 -390 -9 -72
-6 -437 4 -490 24 -115 28 -141 31 -159 13 -122 145 -430 248 -586 64 -96 70
-103 152 -200 394 -466 986 -798 2100 -1177 562 -191 898 -354 1072 -521 86
-83 152 -201 189 -337 26 -97 26 -334 0 -419 -78 -251 -268 -411 -577 -486
-116 -28 -197 -35 -389 -34 -224 0 -349 14 -515 55 -358 88 -576 280 -685 604
-15 44 -27 83 -28 88 0 4 -5 31 -11 60 -20 98 -21 112 -27 227 -4 63 -8 116
-9 118 -3 3 -1600 5 -1751 3 l-42 -1 4 -77 c3 -71 16 -241 19 -253 0 -3 5 -32
10 -65 4 -33 9 -67 10 -75 5 -34 16 -79 35 -155 12 -44 23 -89 25 -100 3 -11
9 -29 14 -40 4 -11 23 -60 41 -110 95 -264 273 -538 490 -756 337 -338 825
-600 1389 -745 102 -26 377 -80 456 -89 28 -3 66 -7 85 -10 31 -4 62 -6 225
-20 130 -11 608 -5 740 9 28 3 79 8 115 11 121 11 249 32 400 65 52 12 105 23
118 26 60 12 269 80 372 121 115 45 280 125 355 172 368 228 605 479 759 802
96 201 137 345 173 609 15 111 8 492 -11 596 -2 11 -7 39 -11 64 -17 105 -67
277 -118 400 -33 80 -121 254 -137 270 -3 3 -11 17 -19 32 -42 81 -235 307
-367 428 -327 300 -817 570 -1449 797 -38 13 -194 67 -345 118 -438 148 -566
198 -780 305 -251 125 -424 264 -509 407 -65 109 -83 175 -82 296 4 361 322
655 771 712 30 4 64 9 75 11 27 6 311 5 355 0 327 -42 569 -178 712 -401 87
-136 141 -320 141 -486 l1 -56 894 0 894 0 -6 121 c-3 67 -8 132 -10 146 -2
14 -7 45 -10 70 -14 95 -18 118 -43 220 -123 507 -452 963 -913 1265 -106 69
-297 170 -405 215 -11 4 -36 15 -55 23 -175 73 -479 160 -640 182 -25 3 -52 8
-60 10 -22 6 -149 22 -234 31 -115 11 -541 25 -549 17z"/>
<path d="M6890 11088 c-1 -170 -1 -7271 -1 -7285 1 -10 187 -13 895 -13 l894
0 -4 982 c-2 541 -5 1001 -8 1023 -2 22 -7 105 -11 185 -8 151 -9 174 -19 410
-4 80 -9 177 -11 215 -3 39 -7 129 -10 200 -3 72 -7 166 -10 210 -8 144 -15
298 -20 405 -3 58 -7 148 -10 200 -3 52 -8 147 -11 210 -5 125 -11 247 -19
410 -6 113 -14 280 -20 400 -10 226 -18 356 -20 360 -2 3 0 12 5 19 5 9 13 -6
24 -45 9 -33 21 -68 26 -79 4 -11 34 -96 65 -190 32 -93 116 -341 187 -550 71
-209 138 -405 148 -435 10 -30 77 -228 150 -440 72 -212 148 -437 170 -500 21
-63 98 -288 170 -500 72 -212 144 -423 160 -470 16 -47 83 -245 150 -440 66
-195 139 -407 160 -470 21 -63 98 -288 170 -500 72 -212 148 -434 168 -495
l37 -110 594 0 594 0 78 230 c43 127 97 284 120 350 23 66 42 125 43 130 1 6
4 15 7 20 6 9 80 228 85 250 2 6 55 163 119 350 64 187 134 392 155 455 21 63
91 268 154 455 64 187 152 448 197 580 44 132 84 249 89 260 4 11 36 103 70
205 34 102 64 192 67 200 3 8 7 20 9 25 1 6 52 156 114 335 61 179 137 404
170 500 32 96 93 276 135 400 42 124 80 234 85 245 7 16 61 176 65 195 1 3 4
12 8 20 3 8 8 22 11 30 3 8 3 -23 1 -70 -3 -47 -7 -143 -10 -215 -3 -71 -8
-164 -10 -205 -3 -41 -7 -129 -10 -195 -3 -66 -7 -160 -10 -210 -5 -87 -10
-181 -20 -405 -3 -58 -7 -141 -9 -185 -3 -44 -8 -143 -11 -220 -3 -77 -7 -171
-10 -210 -3 -38 -7 -133 -10 -210 -3 -77 -8 -171 -10 -210 -2 -38 -7 -124 -10
-190 -7 -147 -13 -278 -20 -410 -7 -147 -14 -274 -21 -420 -5 -99 -9 -1747 -5
-1862 l1 -23 895 0 895 0 0 3705 0 3705 -1174 0 c-676 0 -1177 -4 -1180 -9 -3
-5 -21 -58 -40 -117 -40 -128 -156 -490 -266 -834 -43 -135 -115 -360 -160
-500 -92 -289 -132 -413 -221 -690 -35 -107 -64 -199 -65 -205 -1 -5 -68 -215
-149 -465 -81 -250 -148 -459 -149 -465 -7 -28 -88 -283 -96 -300 -4 -11 -32
-94 -60 -185 -28 -91 -85 -271 -127 -400 -177 -556 -235 -738 -251 -785 -9
-27 -17 -52 -17 -55 -2 -11 -38 -115 -43 -124 -3 -5 -10 9 -17 30 -7 22 -34
107 -60 189 -26 83 -50 157 -53 165 -3 8 -6 17 -7 20 0 3 -10 34 -22 70 -12
36 -60 187 -108 335 -48 149 -108 338 -135 420 -26 83 -80 251 -119 375 -40
124 -80 250 -91 280 -27 80 -143 443 -146 455 -1 6 -39 123 -83 260 -45 138
-84 257 -86 265 -2 8 -10 35 -18 60 -8 25 -33 101 -55 170 -22 69 -76 238
-120 375 -44 138 -115 358 -157 490 -42 132 -97 303 -122 380 -25 77 -54 169
-65 205 -11 36 -24 74 -28 85 -5 11 -34 101 -65 200 -31 99 -66 208 -77 243
l-20 62 -1174 0 -1174 0 0 -112z"/>
</g>
</svg>
